<svg width="414" height="120" viewBox="0 0 414 120" fill="none" xmlns="http://www.w3.org/2000/svg">
<path d="M149.369 100.789H154.319C156.047 100.789 157.481 101.395 158.621 102.607C159.773 103.819 160.349 105.313 160.349 107.089C160.349 108.853 159.773 110.347 158.621 111.571C157.481 112.783 156.047 113.389 154.319 113.389H149.369V100.789ZM151.439 111.409H154.319C155.507 111.409 156.473 111.001 157.217 110.185C157.973 109.369 158.351 108.337 158.351 107.089C158.351 105.841 157.973 104.809 157.217 103.993C156.473 103.177 155.507 102.769 154.319 102.769H151.439V111.409ZM166.845 104.155C167.889 104.155 168.723 104.491 169.347 105.163C169.983 105.823 170.301 106.723 170.301 107.863V113.389H168.357V108.061C168.357 107.389 168.177 106.873 167.817 106.513C167.457 106.153 166.965 105.973 166.341 105.973C165.633 105.973 165.075 106.195 164.667 106.639C164.259 107.071 164.055 107.713 164.055 108.565V113.389H162.111V100.789H164.055V105.541C164.655 104.617 165.585 104.155 166.845 104.155ZM179.522 105.667V104.389H181.466V113.389H179.522V112.093C178.79 113.113 177.74 113.623 176.372 113.623C175.136 113.623 174.08 113.167 173.204 112.255C172.328 111.343 171.89 110.221 171.89 108.889C171.89 107.557 172.328 106.435 173.204 105.523C174.08 104.611 175.136 104.155 176.372 104.155C177.74 104.155 178.79 104.659 179.522 105.667ZM174.644 110.959C175.184 111.499 175.862 111.769 176.678 111.769C177.494 111.769 178.172 111.499 178.712 110.959C179.252 110.407 179.522 109.717 179.522 108.889C179.522 108.061 179.252 107.377 178.712 106.837C178.172 106.285 177.494 106.009 176.678 106.009C175.862 106.009 175.184 106.285 174.644 106.837C174.104 107.377 173.834 108.061 173.834 108.889C173.834 109.705 174.104 110.395 174.644 110.959ZM187.584 108.799L191.688 113.389H189.366L185.676 109.231V113.389H183.732V100.789H185.676V108.367L189.168 104.389H191.544L187.584 108.799ZM199.403 105.667V104.389H201.347V113.389H199.403V112.093C198.671 113.113 197.621 113.623 196.253 113.623C195.017 113.623 193.961 113.167 193.085 112.255C192.209 111.343 191.771 110.221 191.771 108.889C191.771 107.557 192.209 106.435 193.085 105.523C193.961 104.611 195.017 104.155 196.253 104.155C197.621 104.155 198.671 104.659 199.403 105.667ZM194.525 110.959C195.065 111.499 195.743 111.769 196.559 111.769C197.375 111.769 198.053 111.499 198.593 110.959C199.133 110.407 199.403 109.717 199.403 108.889C199.403 108.061 199.133 107.377 198.593 106.837C198.053 106.285 197.375 106.009 196.559 106.009C195.743 106.009 195.065 106.285 194.525 106.837C193.985 107.377 193.715 108.061 193.715 108.889C193.715 109.705 193.985 110.395 194.525 110.959ZM204.153 111.229H206.313L205.053 115.909H203.433L204.153 111.229ZM220.418 106.855C220.97 107.143 221.402 107.545 221.714 108.061C222.026 108.565 222.182 109.141 222.182 109.789C222.182 110.821 221.816 111.679 221.084 112.363C220.352 113.047 219.458 113.389 218.402 113.389H213.002V100.789H218.006C219.038 100.789 219.908 101.125 220.616 101.797C221.336 102.469 221.696 103.297 221.696 104.281C221.696 105.361 221.27 106.219 220.418 106.855ZM218.006 102.733H215.072V106.045H218.006C218.462 106.045 218.846 105.889 219.158 105.577C219.47 105.253 219.626 104.857 219.626 104.389C219.626 103.921 219.47 103.531 219.158 103.219C218.846 102.895 218.462 102.733 218.006 102.733ZM215.072 111.445H218.402C218.882 111.445 219.284 111.277 219.608 110.941C219.944 110.593 220.112 110.173 220.112 109.681C220.112 109.189 219.944 108.775 219.608 108.439C219.284 108.091 218.882 107.917 218.402 107.917H215.072V111.445ZM231.078 105.667V104.389H233.022V113.389H231.078V112.093C230.346 113.113 229.296 113.623 227.928 113.623C226.692 113.623 225.636 113.167 224.76 112.255C223.884 111.343 223.446 110.221 223.446 108.889C223.446 107.557 223.884 106.435 224.76 105.523C225.636 104.611 226.692 104.155 227.928 104.155C229.296 104.155 230.346 104.659 231.078 105.667ZM226.2 110.959C226.74 111.499 227.418 111.769 228.234 111.769C229.05 111.769 229.728 111.499 230.268 110.959C230.808 110.407 231.078 109.717 231.078 108.889C231.078 108.061 230.808 107.377 230.268 106.837C229.728 106.285 229.05 106.009 228.234 106.009C227.418 106.009 226.74 106.285 226.2 106.837C225.66 107.377 225.39 108.061 225.39 108.889C225.39 109.705 225.66 110.395 226.2 110.959ZM240.022 104.155C241.066 104.155 241.9 104.491 242.524 105.163C243.16 105.823 243.478 106.723 243.478 107.863V113.389H241.534V108.061C241.534 107.389 241.354 106.873 240.994 106.513C240.634 106.153 240.142 105.973 239.518 105.973C238.81 105.973 238.252 106.195 237.844 106.639C237.436 107.071 237.232 107.713 237.232 108.565V113.389H235.288V104.389H237.232V105.541C237.832 104.617 238.762 104.155 240.022 104.155ZM252.7 105.667V104.389H254.644V113.389H252.7V112.093C251.968 113.113 250.918 113.623 249.55 113.623C248.314 113.623 247.258 113.167 246.382 112.255C245.506 111.343 245.068 110.221 245.068 108.889C245.068 107.557 245.506 106.435 246.382 105.523C247.258 104.611 248.314 104.155 249.55 104.155C250.918 104.155 251.968 104.659 252.7 105.667ZM247.822 110.959C248.362 111.499 249.04 111.769 249.856 111.769C250.672 111.769 251.35 111.499 251.89 110.959C252.43 110.407 252.7 109.717 252.7 108.889C252.7 108.061 252.43 107.377 251.89 106.837C251.35 106.285 250.672 106.009 249.856 106.009C249.04 106.009 248.362 106.285 247.822 106.837C247.282 107.377 247.012 108.061 247.012 108.889C247.012 109.705 247.282 110.395 247.822 110.959ZM258.603 106.873C258.603 107.149 258.747 107.377 259.035 107.557C259.323 107.725 259.743 107.887 260.295 108.043C260.715 108.139 261.081 108.241 261.393 108.349C261.705 108.457 262.035 108.619 262.383 108.835C262.731 109.039 262.995 109.315 263.175 109.663C263.367 109.999 263.457 110.395 263.445 110.851C263.445 111.715 263.109 112.393 262.437 112.885C261.765 113.377 260.931 113.623 259.935 113.623C259.047 113.623 258.285 113.437 257.649 113.065C257.013 112.693 256.551 112.177 256.263 111.517L257.937 110.545C258.237 111.409 258.903 111.841 259.935 111.841C260.955 111.841 261.465 111.505 261.465 110.833C261.465 110.341 260.895 109.957 259.755 109.681C259.323 109.573 258.957 109.465 258.657 109.357C258.369 109.249 258.045 109.093 257.685 108.889C257.337 108.685 257.067 108.415 256.875 108.079C256.695 107.743 256.611 107.353 256.623 106.909C256.623 106.081 256.935 105.415 257.559 104.911C258.195 104.407 258.981 104.155 259.917 104.155C260.661 104.155 261.321 104.323 261.897 104.659C262.485 104.983 262.935 105.439 263.247 106.027L261.609 106.945C261.309 106.261 260.745 105.919 259.917 105.919C259.533 105.919 259.215 106.003 258.963 106.171C258.723 106.339 258.603 106.573 258.603 106.873ZM266.355 106.873C266.355 107.149 266.499 107.377 266.787 107.557C267.075 107.725 267.495 107.887 268.047 108.043C268.467 108.139 268.833 108.241 269.145 108.349C269.457 108.457 269.787 108.619 270.135 108.835C270.483 109.039 270.747 109.315 270.927 109.663C271.119 109.999 271.209 110.395 271.197 110.851C271.197 111.715 270.861 112.393 270.189 112.885C269.517 113.377 268.683 113.623 267.687 113.623C266.799 113.623 266.037 113.437 265.401 113.065C264.765 112.693 264.303 112.177 264.015 111.517L265.689 110.545C265.989 111.409 266.655 111.841 267.687 111.841C268.707 111.841 269.217 111.505 269.217 110.833C269.217 110.341 268.647 109.957 267.507 109.681C267.075 109.573 266.709 109.465 266.409 109.357C266.121 109.249 265.797 109.093 265.437 108.889C265.089 108.685 264.819 108.415 264.627 108.079C264.447 107.743 264.363 107.353 264.375 106.909C264.375 106.081 264.687 105.415 265.311 104.911C265.947 104.407 266.733 104.155 267.669 104.155C268.413 104.155 269.073 104.323 269.649 104.659C270.237 104.983 270.687 105.439 270.999 106.027L269.361 106.945C269.061 106.261 268.497 105.919 267.669 105.919C267.285 105.919 266.967 106.003 266.715 106.171C266.475 106.339 266.355 106.573 266.355 106.873ZM274.849 104.389V105.901C275.341 104.785 276.265 104.227 277.621 104.227V106.333C276.889 106.285 276.241 106.465 275.677 106.873C275.125 107.269 274.849 107.929 274.849 108.853V113.389H272.905V104.389H274.849ZM287.33 109.717H280.166C280.31 110.389 280.634 110.911 281.138 111.283C281.654 111.655 282.29 111.841 283.046 111.841C284.066 111.841 284.84 111.469 285.368 110.725L286.97 111.661C286.094 112.969 284.78 113.623 283.028 113.623C281.576 113.623 280.394 113.179 279.482 112.291C278.582 111.391 278.132 110.257 278.132 108.889C278.132 107.557 278.576 106.435 279.464 105.523C280.34 104.611 281.48 104.155 282.884 104.155C284.192 104.155 285.272 104.617 286.124 105.541C286.976 106.465 287.402 107.587 287.402 108.907C287.402 109.147 287.378 109.417 287.33 109.717ZM280.148 108.133H285.44C285.308 107.425 285.008 106.879 284.54 106.495C284.084 106.111 283.526 105.919 282.866 105.919C282.146 105.919 281.546 106.117 281.066 106.513C280.586 106.909 280.28 107.449 280.148 108.133Z" fill="#4C4F4D"/>
<path fill-rule="evenodd" clip-rule="evenodd" d="M136.02 97.3075C135.105 96.9123 134.12 96.7044 133.123 96.6959C132.12 96.6803 131.124 96.8692 130.196 97.2509C129.267 97.6325 128.427 98.1991 127.724 98.9161C126.298 100.36 125.491 102.303 125.474 104.332C125.457 106.361 126.232 108.318 127.633 109.785L132.235 114.549C132.328 114.646 132.439 114.723 132.562 114.777C132.685 114.831 132.818 114.86 132.952 114.861C133.086 114.864 133.219 114.839 133.343 114.787C133.466 114.735 133.577 114.657 133.668 114.559L138.351 109.866C139.778 108.423 140.587 106.481 140.606 104.452C140.625 102.423 139.852 100.466 138.452 98.9968C137.762 98.2771 136.936 97.7027 136.02 97.3075ZM132.962 107.006C134.311 107.006 135.404 105.912 135.404 104.563C135.404 103.214 134.311 102.12 132.962 102.12C131.613 102.12 130.519 103.214 130.519 104.563C130.519 105.912 131.613 107.006 132.962 107.006Z" fill="#4C4F4D"/>
<g clip-path="url(#clip0)">
</g>
</svg>
